**ABCDEFGHIJKLMNOPQRSTUVWXYZabcdefghijklmnopqrstuvwxyz**************************
**PARASOLID !"#$%&'()*+,-./:;<=>?@[\]^_`{|}~0123456789**************************
**PART1;
MC=AMD64;
MC_MODEL=AMD64 Family 15 Model 75 Stepping 2, AuthenticAMD;
MC_ID=unknown;
OS=Windows_NT;
OS_RELEASE=unknown;
FRU=Parasolid Version 24.0, build 216,  1-13-2012;
APPL=SolidWorks 2012-2012159;
SITE=;
USER=unknown;
FORMAT=text;
GUISE=transmit;
KEY=Batteria ricaricabile stilo;
FILE=Batteria ricaricabile stilo.x_t;
DATE=Sat Jan 11 21:14:09 2014;
**PART2;
SCH=SCH_2400216_20000;
USFLD_SIZE=0;
**PART3;
**END_OF_HEADER*****************************************************************
T51 : TRANSMIT FILE created by modeller version 240021617 SCH_2200000_200000 12
 1 2279 0 2 3 0 0 0 1e3 1e-8 0 4 0 1 0 1 1 5 6 7 0 8 9 0 0 0 0 0 70 2 0 4 T1 0 0
 2 20 1 10 10 50 3 145 0 1 11 0 0 +0 0 -635e-6 0 0 1 1 0 0 13 5 29 0 1 0 12 0 0
 13 0 54 6 446 0 14 15 0 0 +0 0 762e-6 0 0 1 .006223 762e-6 1 0 0 31 7 430 0 9 1
6 0 0 +0 0 762e-6 0 0 1 1 0 0 .006985 19 8 7 0 1 13 0 17 V16 9 427 0 ?18 0 19 7
 0 0 1 17 18 0 20 18 18 0 21 9 0 0 +16 19 421 0 ?22 9 23 16 0 0 1 17 22 0 24 22
 22 0 25 19 0 0 +16 23 393 0 ?26 19 27 28 0 0 1 31 16 424 0 19 28 7 0 -0 0 0 0 0
 1 1 0 0 .006223 31 28 396 0 23 29 16 0 -0 0 -635e-6 0 0 1 1 0 0 .00304757390131
693 31 29 367 0 30 31 28 0 -0 0 0 0 0 1 1 0 0 .00379891603377058 16 30 147 0 ?32
 33 34 29 0 0 1 31 31 301 0 27 35 29 0 -0 0 .046609 0 0 1 1 0 0 .006985 16 27 29
8 0 ?36 23 37 31 0 0 1 31 35 295 0 37 38 31 0 +0 0 .047371 0 0 1 1 0 0 .006223 1
6 37 292 0 ?39 27 40 35 0 0 1 31 38 265 0 40 41 35 0 -0 0 .047879 0 0 1 1 0 0 .0
031115 16 40 262 0 ?42 37 43 38 0 0 1 31 41 259 0 43 44 38 0 +0 0 .048387 0 0 1
 1 0 0 .0026035 16 43 256 0 ?45 40 46 41 0 0 1 31 44 231 0 46 47 41 0 +0 0 .0478
79 0 0 1 1 0 0 .0042545 16 46 228 0 ?48 43 49 44 0 0 1 31 47 201 0 49 50 44 0 -0
 0 .048895 0 0 1 1 0 0 .0026035 16 49 198 0 ?51 46 33 47 0 0 1 31 50 195 0 33 52
 47 0 +0 0 .049403 0 0 1 1 0 0 .0020955 16 33 192 0 ?53 49 30 50 0 0 1 31 52 84
 0 34 0 50 0 +0 0 .047371 0 0 1 1 0 0 .0047625 16 34 61 0 ?54 30 0 52 0 0 1 17 5
4 0 55 54 54 0 56 34 0 0 +15 55 241 0 54 57 58 17 56 0 59 56 56 0 54 34 0 0 -15
 59 55 0 56 60 0 14 60 58 61 ?62 63 64 5 65 +0 0 62 63 17 81 1 61 2267 66 60 67
 0 0 68 69 14 62 25 68 ?70 60 20 5 71 -0 0 70 60 17 14 63 104 72 ?60 12 73 5 74
 +0 0 60 12 17 15 64 293 0 39 60 59 50 65 2 0 60 74 75 0 +0 0 .047371 0 0 1 1 0
 0 13 17 8 0 0 0 0 0 0 8 12 14 12 151 76 ?63 0 24 5 75 -0 0 63 0 17 81 1 76 2270
 66 12 77 0 72 78 79 15 24 422 0 22 12 80 50 75 22 0 12 65 71 0 +0 0 0 0 0 1 1 0
 0 51 71 28 0 62 75 81 0 -0 0 .047371 0 0 -1 .006985 -1 0 0 54 81 217 0 82 71 83
 0 +0 0 .048895 0 0 1 .0020955 508e-6 1 0 0 14 82 210 78 ?57 84 85 5 81 +0 0 57
 84 17 54 83 247 0 57 81 86 0 +0 0 .047371 0 0 1 .0042545 508e-6 1 0 0 14 57 240
 87 ?88 82 55 5 83 +0 0 88 82 17 52 86 281 0 88 83 89 0 -0 0 .048387 0 0 -1 .002
6035 .707106781186547 .707106781186548 -1 0 0 14 88 274 90 ?91 57 92 5 86 -0 0 9
1 57 17 54 89 317 0 91 86 15 0 +0 0 .046609 0 0 1 .006223 762e-6 1 0 0 14 91 310
 93 ?94 88 95 5 89 +0 0 94 88 17 54 15 412 0 94 89 6 0 +0 0 127e-6 0 0 -1 .00304
757390131693 762e-6 -1 0 0 14 94 405 96 ?14 91 97 5 15 +0 0 14 91 17 81 1 96 227
5 66 94 98 0 93 99 100 14 14 439 99 ?0 94 101 5 6 +0 0 0 94 17 15 97 406 0 102 9
4 103 17 102 0 97 102 102 0 26 23 0 0 -15 103 407 0 32 94 0 17 32 0 103 32 32 0
 104 30 0 0 +17 104 0 80 104 104 0 32 30 0 0 -15 80 149 0 104 12 0 17 26 0 105 2
6 26 0 102 23 0 0 +15 105 394 0 26 84 0 14 84 166 106 ?82 107 105 5 108 -0 0 82
 107 17 81 1 106 2277 66 84 109 0 99 110 111 14 107 119 110 ?84 70 112 5 113 +0
 0 84 70 17 50 108 175 0 84 0 114 0 +0 0 -635e-6 0 0 1 1 0 0 51 114 127 0 70 108
 113 0 -0 0 .0567668100192767 0 0 -1 .0026035 -1 0 0 14 70 111 115 ?107 62 116 5
 114 -0 0 107 62 17 50 113 126 0 107 114 74 0 +0 0 .049403 0 0 1 1 0 0 50 74 80
 0 63 113 65 0 +0 0 .047879 0 0 1 1 0 0 81 1 115 2279 66 70 117 0 110 0 118 15 1
16 257 0 45 70 119 17 45 0 116 45 45 0 120 43 0 0 +15 119 199 0 51 70 0 17 51 0
 119 51 51 0 121 49 0 0 +17 121 0 85 121 121 0 51 49 0 0 -15 85 211 0 121 82 122
 15 122 212 0 123 82 0 17 123 0 122 123 123 0 53 33 0 0 -17 53 0 112 53 53 0 123
 33 0 0 +15 112 193 0 53 107 0 17 120 0 124 120 120 0 45 43 0 0 -15 124 276 0 12
0 88 0 80 1 66 125 126 9000 1 1 1 1 1 1 1 1 0 FFFFTFTFFFFFFF1 81 1 117 2230 127
 70 0 115 128 129 130 81 1 110 2278 66 107 129 0 106 115 131 82 1 118 250740957
 81 1 129 2231 127 107 0 110 117 109 132 82 1 131 251265243 80 1 127 0 133 8001
 0 0 0 0 3 5 0 0 0 FFFFTFTFFFFFFF2 81 1 109 2232 127 84 0 106 129 134 135 83 3 1
32 .666666666666667 .698039215686275 .768627450980392 81 1 134 2233 127 82 0 78
 109 136 137 83 3 135 .666666666666667 .698039215686275 .768627450980392 81 1 78
 2271 66 82 134 0 76 87 138 81 1 136 2234 127 57 0 87 134 139 140 83 3 137 .6666
66666666667 .698039215686275 .768627450980392 81 1 87 2272 66 57 136 0 78 90 141
 81 1 139 2235 127 88 0 90 136 142 143 83 3 140 .666666666666667 .69803921568627
5 .768627450980392 81 1 90 2273 66 88 139 0 87 93 144 81 1 142 2236 127 91 0 93
 139 98 145 83 3 143 .666666666666667 .698039215686275 .768627450980392 81 1 93
 2274 66 91 142 0 90 96 146 81 1 98 2237 127 94 0 96 142 147 148 83 3 145 .43921
568627451 .43921568627451 .43921568627451 81 1 147 2238 127 14 0 99 98 0 149 83
 3 148 .666666666666667 .698039215686275 .768627450980392 81 1 99 2276 66 14 147
 0 96 106 150 83 3 149 .43921568627451 .43921568627451 .43921568627451 82 1 150
 326369506 82 1 146 304349406 82 1 144 299827421 82 1 141 295633116 82 1 138 290
914523 79 15 133 SDL/TYSA_COLOUR81 1 128 2229 127 62 0 68 67 117 151 83 3 130 .6
66666666666667 .698039215686275 .768627450980392 81 1 68 2268 66 62 128 0 61 72
 152 81 1 67 2228 127 60 0 61 153 128 154 83 3 151 .666666666666667 .69803921568
6275 .768627450980392 81 1 153 2227 127 63 0 72 77 67 155 83 3 154 .666666666666
667 .698039215686275 .768627450980392 81 1 72 2269 66 63 153 0 68 76 156 81 1 77
 2226 127 12 0 76 0 153 157 83 3 155 .666666666666667 .698039215686275 .76862745
0980392 83 3 157 .666666666666667 .698039215686275 .768627450980392 82 1 156 260
702429 82 1 152 204865762 79 14 126 SWEntUnchanged82 1 111 279511265 15 101 440
 0 21 14 158 17 21 0 101 21 21 0 18 9 0 0 -15 158 441 0 25 14 0 17 25 0 158 25 2
5 0 22 19 0 0 -82 1 100 322306273 15 95 311 0 159 91 160 17 159 0 95 159 159 0 3
6 27 0 0 -15 160 312 0 161 91 0 17 161 0 160 161 161 0 39 37 0 0 -17 39 0 64 39
 39 0 161 37 0 0 +17 36 0 162 36 36 0 159 27 0 0 +15 162 299 0 36 62 0 15 92 275
 0 163 88 124 17 163 0 92 163 163 0 42 40 0 0 -17 42 0 73 42 42 0 163 40 0 0 +15
 73 263 0 42 63 164 15 164 229 0 48 63 0 17 48 0 164 48 48 0 165 46 0 0 +17 165
 0 58 165 165 0 48 46 0 0 -15 58 242 0 165 57 0 82 1 79 288030946 15 20 428 0 18
 62 162 82 1 69 233439454 19 13 30 0 1 0 8 5 S50 11 98 0 1 166 3 0 +0 0 .049403
 0 0 1 1 0 0 50 166 52 0 1 0 11 0 +0 0 .047879 0 0 1 1 0 0 74 20 10 2 0 0 115 14
7 0 0 0 0 0 0 0 0 0 0 0 0 0 0 0 0 0 0 1 0 
